<svg xmlns="http://www.w3.org/2000/svg" version="1.1" xmlns:xlink="http://www.w3.org/1999/xlink" xmlns:svgjs="http://svgjs.dev/svgjs" width="1000" height="623" viewBox="0 0 1000 623"><g transform="matrix(1,0,0,1,-0.6060606060606233,0.2522267206477409)"><svg viewBox="0 0 396 247" data-background-color="#c8c8c8" preserveAspectRatio="xMidYMid meet" height="623" width="1000" xmlns="http://www.w3.org/2000/svg" xmlns:xlink="http://www.w3.org/1999/xlink"><g id="tight-bounds" transform="matrix(1,0,0,1,0.2400000000000091,-0.09999999999999432)"><svg viewBox="0 0 395.52 247.2" height="247.2" width="395.52"><g><svg></svg></g><g><svg viewBox="0 0 395.52 247.2" height="247.2" width="395.52"><g transform="matrix(1,0,0,1,131.2996484671533,47.215199999999996)"><svg viewBox="0 0 132.9207030656934 152.7696" height="152.7696" width="132.9207030656934"><g><svg viewBox="0 0 132.9207030656934 152.7696" height="152.7696" width="132.9207030656934"><g><svg viewBox="0 0 132.9207030656934 152.7696" height="152.7696" width="132.9207030656934"><g><svg viewBox="0 0 132.9207030656934 152.7696" height="152.7696" width="132.9207030656934"><g><svg viewBox="0 0 132.9207030656934 152.7696" height="152.7696" width="132.9207030656934"><g><svg viewBox="0 0 132.9207030656934 152.7696" height="152.7696" width="132.9207030656934"><g transform="matrix(1,0,0,1,0,0)"><svg width="132.9207030656934" viewBox="-0.10000000149011612 -33.45000076293945 29.100000381469727 33.45000076293945" height="152.7696" data-palette-color="#000000"><path d="M10.69-33.45L18.21-33.45Q20.68-33.45 22.68-32.71 24.68-31.98 26.09-30.71 27.49-29.44 28.25-27.75 29-26.05 29-24.15L29-24.15 29-9.3Q29-7.4 28.25-5.7 27.49-4 26.09-2.73 24.68-1.46 22.68-0.73 20.68 0 18.21 0L18.21 0 10.69 0Q8.23 0 6.23-0.73 4.22-1.46 2.82-2.73 1.42-4 0.66-5.7-0.1-7.4-0.1-9.3L-0.1-9.3-0.1-24.15Q-0.1-26.05 0.66-27.75 1.42-29.44 2.82-30.71 4.22-31.98 6.23-32.71 8.23-33.45 10.69-33.45L10.69-33.45ZM20-16.26L20.46-11.06 23.24-11.06 21.31-29.25 19.8-30.76 16.55-31.25 13.94-31.25 10.69-30.76 9.2-29.25 7.2-11.06 10.11-11.06 10.5-16.26 10.74-18.51 19.75-18.51 20-16.26ZM16.46-28.66L18.75-28.3Q18.92-26.32 19.14-24.56 19.36-22.8 19.56-20.85L19.56-20.85 10.96-20.85 11.69-28.3Q12.38-28.37 12.88-28.47 13.38-28.56 14.06-28.66L14.06-28.66 16.46-28.66Z" opacity="1" transform="matrix(1,0,0,1,0,0)" fill="#000000" class="undefined-text-0" data-fill-palette-color="primary" id="text-0"></path></svg></g></svg></g></svg></g></svg></g></svg></g></svg></g></svg></g><path d="M313.601 41.215L313.601 0 66.401 0 66.401 247.2 313.601 247.2 313.601 205.985 299.824 205.985 299.824 233.423 80.178 233.423 80.178 13.777 299.824 13.777 299.824 41.215Z" fill="#000000" stroke="transparent" data-fill-palette-color="primary"></path></svg></g><defs></defs></svg><rect width="395.52" height="247.2" fill="none" stroke="none" visibility="hidden"></rect></g></svg></g></svg>